<svg xmlns="http://www.w3.org/2000/svg" data-name="Layer 1" viewBox="0 0 95 118.75" x="0px" y="0px">
<path d="M19.662,35.565a9.274,9.274,0,1,0-9.273-9.273A9.284,9.284,0,0,0,19.662,35.565Zm0-16.367a7.094,7.094,0,1,1-7.094,7.094A7.1,7.1,0,0,1,19.662,19.2ZM75.338,35.565a9.274,9.274,0,1,0-9.274-9.273A9.284,9.284,0,0,0,75.338,35.565Zm0-16.367a7.094,7.094,0,1,1-7.094,7.094A7.1,7.1,0,0,1,75.338,19.2ZM94,56.022A18.717,18.717,0,0,0,65,41.874,14.046,14.046,0,0,0,54.478,41,11.171,11.171,0,0,0,47.5,47.05,11.171,11.171,0,0,0,40.522,41,14.051,14.051,0,0,0,30,41.874,18.717,18.717,0,0,0,1,56.022,1.089,1.089,0,0,0,2.09,57.2h21.2a18.032,18.032,0,0,0,2.445,5.757c2.624,4.084,10.687,10.428,16.575,15.06,1.782,1.4,3.321,2.612,4.5,3.589a1.087,1.087,0,0,0,1.392,0c1.176-.976,2.715-2.187,4.5-3.589,5.887-4.632,13.951-10.976,16.575-15.06A18.032,18.032,0,0,0,71.713,57.2h21.2A1.089,1.089,0,0,0,94,56.022ZM3.309,55.015A16.611,16.611,0,0,1,19.662,40.939a16.415,16.415,0,0,1,8.285,2.224A12.5,12.5,0,0,0,25.6,45.494a13.6,13.6,0,0,0-2.656,9.521Zm64.126,6.759C65.008,65.55,57.111,71.763,51.345,76.3c-1.464,1.152-2.765,2.175-3.845,3.053-1.08-.878-2.381-1.9-3.845-3.053-5.766-4.537-13.664-10.749-16.09-14.525-3.237-5.038-3.328-10.909-.231-14.956a11.359,11.359,0,0,1,9.006-4.281,11.659,11.659,0,0,1,3.524.541,9.108,9.108,0,0,1,6.547,8.79,1.09,1.09,0,0,0,2.178,0,9.108,9.108,0,0,1,6.547-8.79,11.565,11.565,0,0,1,12.53,3.74C70.763,50.865,70.672,56.736,67.435,61.774Zm4.618-6.759A13.606,13.606,0,0,0,69.4,45.494a12.5,12.5,0,0,0-2.344-2.331,16.415,16.415,0,0,1,8.285-2.224A16.611,16.611,0,0,1,91.691,55.015ZM47.5,35.941a11.4,11.4,0,1,0-11.4-11.4A11.41,11.41,0,0,0,47.5,35.941Zm0-20.614a9.217,9.217,0,1,1-9.217,9.217A9.228,9.228,0,0,1,47.5,15.327Zm6.076,44.425H51.582V57.759a2.139,2.139,0,0,0-2.137-2.137h-3.89a2.139,2.139,0,0,0-2.137,2.137v1.993H41.424a2.139,2.139,0,0,0-2.136,2.137v3.89a2.139,2.139,0,0,0,2.136,2.137h1.994V69.91a2.139,2.139,0,0,0,2.137,2.136h3.89a2.139,2.139,0,0,0,2.137-2.136V67.916h1.994a2.139,2.139,0,0,0,2.136-2.137v-3.89A2.139,2.139,0,0,0,53.576,59.752Zm-.044,5.984h-3.04a1.09,1.09,0,0,0-1.09,1.09v3.041H45.6V66.826a1.09,1.09,0,0,0-1.09-1.09h-3.04v-3.8h3.04a1.09,1.09,0,0,0,1.09-1.09V57.8h3.8v3.04a1.09,1.09,0,0,0,1.09,1.09h3.04Z"/>
</svg>